<svg width="181" height="179" viewBox="0 0 181 179" fill="none" xmlns="http://www.w3.org/2000/svg">
<g id="Group 2527">
<ellipse id="Ellipse 4" cx="90.5" cy="89.5" rx="90.5" ry="89.5" fill="white"/>
<g id="&#240;&#159;&#166;&#134; icon &#34;User Circle&#34;">
<path id="Vector" d="M90.5 10C46.5827 10 11 45.5827 11 89.5C11 133.417 46.5827 169 90.5 169C134.417 169 170 133.417 170 89.5C170 45.5827 134.417 10 90.5 10ZM90.5 40.7742C106.079 40.7742 118.71 53.4044 118.71 68.9839C118.71 84.5633 106.079 97.1935 90.5 97.1935C74.9206 97.1935 62.2903 84.5633 62.2903 68.9839C62.2903 53.4044 74.9206 40.7742 90.5 40.7742ZM90.5 151.048C71.6829 151.048 54.8212 142.521 43.5373 129.186C49.5639 117.838 61.3607 110.016 75.1129 110.016C75.8823 110.016 76.6516 110.144 77.3889 110.369C81.5563 111.715 85.9159 112.581 90.5 112.581C95.0841 112.581 99.4758 111.715 103.611 110.369C104.348 110.144 105.118 110.016 105.887 110.016C119.639 110.016 131.436 117.838 137.463 129.186C126.179 142.521 109.317 151.048 90.5 151.048Z" fill="black"/>
</g>
</g>
</svg>
